<svg width="17" height="16" viewBox="0 0 17 16" fill="none" xmlns="http://www.w3.org/2000/svg">
<path d="M13.7688 6C13.5147 6 13.2764 6.06706 13.0716 6.18391C12.9946 5.51856 12.4104 5 11.7035 5C11.3673 5 11.0584 5.11784 10.8184 5.31413C10.5774 4.92644 10.1387 4.66666 9.63817 4.66666C9.38775 4.66666 9.15243 4.73175 8.94974 4.84569V1.33334C8.94971 0.597969 8.33221 0 7.57285 0C6.81349 0 6.19596 0.597969 6.19596 1.33334V10.2546C6.19596 10.4225 6.08166 10.5088 6.03257 10.5381C5.98349 10.5674 5.85137 10.6276 5.69776 10.5527L3.48723 9.48244C3.28586 9.38478 3.06032 9.33334 2.8351 9.33334C2.03102 9.33334 1.37689 9.96681 1.37689 10.7455V11C1.37689 11.0924 1.41655 11.1807 1.48613 11.2438L5.45912 14.8346C6.29074 15.5859 7.37519 16 8.51238 16H10.6708C13.1381 16 15.1457 14.056 15.1457 11.6667V7.33334C15.1457 6.59797 14.5282 6 13.7688 6ZM14.4572 11.6667C14.4572 13.6885 12.7587 15.3333 10.6708 15.3333H8.51241C7.55032 15.3333 6.63264 14.9831 5.92908 14.347L2.06532 10.8552V10.7455C2.06532 10.3343 2.41055 10 2.8351 10C2.95376 10 3.0731 10.0273 3.17933 10.0788L5.38987 11.1491C5.71225 11.3057 6.08805 11.2884 6.39462 11.1055C6.70119 10.9219 6.88439 10.6038 6.88439 10.2546V1.33334C6.88439 0.965844 7.19331 0.666687 7.57282 0.666687C7.95232 0.666687 8.26125 0.965844 8.26125 1.33334V6.33334C8.26125 6.51759 8.41521 6.66669 8.60548 6.66669C8.79574 6.66669 8.94971 6.51759 8.94971 6.33334V6C8.94971 5.6325 9.25863 5.33334 9.63813 5.33334C10.0176 5.33334 10.3266 5.6325 10.3266 6V6.33334C10.3266 6.334 10.3266 6.33466 10.3266 6.33531V6.33563C10.3279 6.51856 10.4815 6.66669 10.6708 6.66669C10.8611 6.66669 11.015 6.51759 11.015 6.33334V6.32812C11.0177 5.96322 11.3263 5.66666 11.7035 5.66666C12.083 5.66666 12.3919 5.96581 12.3919 6.33331V7.33331C12.3919 7.51756 12.5458 7.66666 12.7361 7.66666C12.9264 7.66666 13.0803 7.51756 13.0803 7.33331C13.0803 6.96581 13.3893 6.66666 13.7688 6.66666C14.1483 6.66666 14.4572 6.96581 14.4572 7.33334V11.6667Z" fill="black"/>
</svg>
